<svg width="100" height="100" viewBox="0 0 100 100" fill="none" xmlns="http://www.w3.org/2000/svg">
<mask id="mask0_230_173" style="mask-type:luminance" maskUnits="userSpaceOnUse" x="0" y="0" width="100" height="100">
<path d="M100 0H0V100H100V0Z" fill="white"/>
</mask>
<g mask="url(#mask0_230_173)">
<path d="M29.0441 58.351C37.2118 48.1317 51.96 42.2485 64.1406 44.3506L78.5666 46.8402C94.4082 49.574 99.2309 64.3825 88.6085 77.6729L86.2471 80.6274C78.0794 90.8467 63.3312 96.73 51.1506 94.6282L36.7246 92.1382C20.8835 89.4044 16.0605 74.5959 26.6827 61.3055L29.0441 58.351Z" fill="#0B46AC"/>
<g filter="url(#filter0_d_230_173)">
<path d="M17.2198 22.4829C25.3752 12.2305 40.156 6.31755 52.3628 8.42416L78.6947 12.9684C94.5073 15.6974 99.3473 30.4617 88.7832 43.7428L79.1424 55.8624C70.9872 66.1148 56.2063 72.0278 43.9995 69.9213L17.6675 65.377C1.85469 62.6481 -2.98534 47.8837 7.57915 34.6026L17.2198 22.4829Z" fill="#35A8F6"/>
</g>
</g>
<defs>
<filter id="filter0_d_230_173" x="-3.52639" y="2.52211" width="114.371" height="84.2577" filterUnits="userSpaceOnUse" color-interpolation-filters="sRGB">
<feFlood flood-opacity="0" result="BackgroundImageFix"/>
<feColorMatrix in="SourceAlpha" type="matrix" values="0 0 0 0 0 0 0 0 0 0 0 0 0 0 0 0 0 0 127 0" result="hardAlpha"/>
<feOffset dx="5.47828" dy="5.47828"/>
<feGaussianBlur stdDeviation="5.47828"/>
<feComposite in2="hardAlpha" operator="out"/>
<feColorMatrix type="matrix" values="0 0 0 0 0 0 0 0 0 0 0 0 0 0 0 0 0 0 0.1 0"/>
<feBlend mode="normal" in2="BackgroundImageFix" result="effect1_dropShadow_230_173"/>
<feBlend mode="normal" in="SourceGraphic" in2="effect1_dropShadow_230_173" result="shape"/>
</filter>
</defs>
</svg>
